<svg width="80" height="80" viewBox="0 0 80 80" fill="none" xmlns="http://www.w3.org/2000/svg">
<path d="M40 0C17.9063 0 0 17.9063 0 40C0 62.0938 17.9063 80 40 80C62.0938 80 80 62.0938 80 40C80 17.9063 62.0938 0 40 0ZM40 8C57.6406 8 72 22.3594 72 40C72 41.875 71.8125 43.7188 71.5 45.5C70.5156 45.2813 69.0625 45.0156 67.375 45C66.125 44.9844 64.5625 45.1875 63.25 45.375C63.7031 43.9844 64 42.4531 64 40.875C64 37.0313 62.125 33.4531 59.125 30.5C59.9531 27.4219 60.7656 22.1406 58.625 20C52.2969 20 48.7969 24.5156 48.625 24.75C46.6719 24.2813 44.6563 24 42.5 24C39.7344 24 37.0938 24.5 34.625 25.25L35.375 24.625C35.375 24.625 31.8594 19.75 25.375 19.75C23.1094 22.0313 24.1406 27.8125 25 30.75C21.9375 33.6719 20 37.125 20 40.875C20 42.1875 20.3125 43.4375 20.625 44.625C19.5156 44.5 15.5156 44.125 13.875 44.125C12.4219 44.125 10.1719 44.4688 8.375 44.875C8.125 43.2813 8 41.6563 8 40C8 22.3594 22.3594 8 40 8ZM13.875 45.125C15.4531 45.125 20.25 45.6875 20.875 45.75C20.9531 45.9688 21.0313 46.1719 21.125 46.375C19.4063 46.2188 16.0781 45.9844 13.875 46.25C12.4063 46.4219 10.5313 46.9531 8.875 47.375C8.75 46.875 8.59375 46.3906 8.5 45.875C10.25 45.5 12.5469 45.125 13.875 45.125ZM67.375 46C68.9688 46.0156 70.4219 46.2813 71.375 46.5C71.3281 46.7656 71.1875 46.9844 71.125 47.25C70.1094 47.0156 68.4375 46.6719 66.5 46.625C65.5625 46.6094 64.0625 46.6563 62.75 46.75C62.8125 46.625 62.8281 46.5 62.875 46.375C64.2344 46.1875 65.9688 45.9844 67.375 46ZM16.375 47.125C18.625 47.1406 20.7344 47.2969 21.625 47.375C23.7188 51.2813 27.9531 54.1719 34.5 55.375C32.8906 56.2656 31.4531 57.5156 30.375 59C29.4375 59.0781 28.4531 59.125 27.5 59.125C24.7188 59.125 22.9844 56.6406 21.5 54.5C20 52.3594 18.1563 52.125 17.125 52C16.0781 51.875 15.7188 52.4688 16.25 52.875C19.2969 55.2188 20.3906 58 21.625 60.5C22.7344 62.75 25.0625 64 27.625 64H28.125C28.0469 64.4375 28 64.8438 28 65.25V69.625C18.7656 65.8906 11.7344 58 9.125 48.25C10.7656 47.8438 12.6094 47.4219 14 47.25C14.6406 47.1719 15.4531 47.1094 16.375 47.125ZM66.5 47.625C68.2969 47.6719 69.8906 48.0156 70.875 48.25C68.6719 56.5313 63.2344 63.4219 56 67.625V65.25C56 61.8438 53.3125 57.4688 49.5 55.375C55.8281 54.2188 59.9531 51.4531 62.125 47.75C63.6406 47.6406 65.4219 47.5938 66.5 47.625ZM42 64C43.0938 64 44 64.9063 44 66V71.75C42.6875 71.9219 41.3594 72 40 72V66C40 64.9063 40.9063 64 42 64ZM34 68C35.0938 68 36 68.9063 36 70V71.75C34.6563 71.5781 33.2969 71.3281 32 71V70C32 68.9063 32.9063 68 34 68ZM50 68C50.9688 68 51.8125 68.7031 52 69.625C50.7031 70.1563 49.375 70.6406 48 71V70C48 68.9063 48.9063 68 50 68Z" fill="black"/>
</svg>
